<?xml version="1.0" encoding="utf-8"?>
<!-- Generator: Adobe Illustrator 24.1.2, SVG Export Plug-In . SVG Version: 6.00 Build 0)  -->
<svg version="1.1" id="Calque_1" xmlns="http://www.w3.org/2000/svg" xmlns:xlink="http://www.w3.org/1999/xlink" x="0px" y="0px"
	 viewBox="0 0 450 450" style="enable-background:new 0 0 450 450;" xml:space="preserve">
<style type="text/css">
	.st0{fill:#7E50FF;stroke:#696992;stroke-linecap:round;stroke-linejoin:round;stroke-miterlimit:10;}
	.st1{fill:none;stroke:#FFFFFF;stroke-linecap:round;stroke-linejoin:round;stroke-miterlimit:10;}
	.st2{fill:#F1BD19;stroke:#231F20;stroke-linecap:round;stroke-linejoin:round;stroke-miterlimit:10;}
	.st3{fill:none;stroke:#231F20;stroke-linecap:round;stroke-linejoin:round;stroke-miterlimit:10;}
	.st4{fill:#ECECEC;stroke:#696992;stroke-linecap:round;stroke-linejoin:round;stroke-miterlimit:10;}
	.st5{fill:#F6D1A7;stroke:#696992;stroke-linecap:round;stroke-linejoin:round;stroke-miterlimit:10;}
	.st6{fill:none;stroke:#696992;stroke-linecap:round;stroke-linejoin:round;stroke-miterlimit:10;}
	.st7{fill:#ECECEC;stroke:#231F20;stroke-linecap:round;stroke-linejoin:round;stroke-miterlimit:10;}
	.st8{fill:#F6D1A7;stroke:#231F20;stroke-linecap:round;stroke-linejoin:round;stroke-miterlimit:10;}
	.st9{fill:#D6A500;stroke:#231F20;stroke-linecap:round;stroke-linejoin:round;stroke-miterlimit:10;}
	.st10{fill:#424242;stroke:#231F20;stroke-linecap:round;stroke-linejoin:round;stroke-miterlimit:10;}
	.st11{fill:#FF8C56;stroke:#231F20;stroke-linecap:round;stroke-linejoin:round;stroke-miterlimit:10;}
	.st12{fill:#ADD676;stroke:#231F20;stroke-linecap:round;stroke-linejoin:round;stroke-miterlimit:10;}
	.st13{fill:#0082C8;stroke:#696992;stroke-linecap:round;stroke-linejoin:round;stroke-miterlimit:10;}
	.st14{fill:#EC6F39;stroke:#231F20;stroke-linecap:round;stroke-linejoin:round;stroke-miterlimit:10;}
	.st15{fill:none;stroke:#ECECEC;stroke-linecap:round;stroke-linejoin:round;stroke-miterlimit:10;}
	.st16{fill:none;stroke:#ECECEC;stroke-width:1;stroke-linecap:round;stroke-linejoin:round;stroke-miterlimit:9.9999;}
	.st17{fill:none;stroke:#ECECEC;stroke-linecap:round;stroke-linejoin:round;}
	.st18{fill:none;stroke:#ECECEC;stroke-linecap:round;stroke-linejoin:round;stroke-dasharray:4.4484,1.7794;}
	.st19{fill:none;stroke:#ECECEC;stroke-linecap:round;stroke-linejoin:round;stroke-dasharray:5.0284,2.0114;}
	.st20{fill:none;stroke:#ECECEC;stroke-linecap:round;stroke-linejoin:round;stroke-dasharray:5.0585,2.0234;}
	.st21{fill:none;stroke:#ECECEC;stroke-linecap:round;stroke-linejoin:round;stroke-dasharray:5.0623,2.0249;}
	.st22{fill:none;stroke:#ECECEC;stroke-linecap:round;stroke-linejoin:round;stroke-dasharray:4.84,1.936;}
	.st23{fill:none;stroke:#ECECEC;stroke-linecap:round;stroke-linejoin:round;stroke-dasharray:4.206,1.6824;}
	.st24{fill:#F2F2F4;stroke:#6E6E6E;stroke-width:2;stroke-linecap:round;stroke-linejoin:round;stroke-miterlimit:10;}
	.st25{fill:#FFFFFF;stroke:#6E6E6E;stroke-width:2;stroke-miterlimit:10;}
	.st26{fill:#7E50FF;}
	.st27{fill:none;stroke:#7E50FF;stroke-width:2;stroke-miterlimit:10;}
	.st28{fill:none;stroke:#FFFFFF;stroke-miterlimit:10;}
	.st29{fill:#0082C8;}
	.st30{fill:none;stroke:#0082C8;stroke-width:2;stroke-miterlimit:10;}
	.st31{fill:#F2F2F4;}
	.st32{fill:none;stroke:#696992;stroke-width:3;stroke-miterlimit:10;}
	.st33{clip-path:url(#SVGID_2_);}
	.st34{fill:none;stroke:#5C5C74;stroke-miterlimit:10;}
	.st35{fill:#FFFFFF;stroke:#5D5C74;stroke-miterlimit:10;}
	.st36{fill:#FBD7CE;}
	.st37{fill:#5C5C74;}
	.st38{fill:none;stroke:#7F7FBC;stroke-width:2;stroke-miterlimit:10;}
	.st39{fill:#FFFFFF;stroke:#696992;stroke-width:2;stroke-miterlimit:10;}
	.st40{fill:#A2B1CE;}
	.st41{fill:#E8ECF3;}
	.st42{fill:#A7B5D1;}
	.st43{fill:#3C5A99;}
	.st44{fill-rule:evenodd;clip-rule:evenodd;fill:#FFFFFF;}
	.st45{fill:#FF0000;}
	.st46{fill:#33CCFF;}
</style>
<g>
	<g id="XMLID_442_">
		<path id="XMLID_446_" class="st0" d="M365.4,341.4h-19.7c-1.4,0-2.6,1.2-2.6,2.6v10.5c0,1.4,1.2,2.6,2.6,2.6h1.6
			c0,1.5-0.6,2.9-1.6,4c-0.5,0.5-0.1,1.3,0.5,1.4c4.1,0.4,6.8-2.5,6.8-5.3h12.3c1.4,0,2.6-1.2,2.6-2.6V344
			C368,342.6,366.8,341.4,365.4,341.4z"/>
		<line id="XMLID_445_" class="st1" x1="346.5" y1="345.9" x2="364.5" y2="345.9"/>
		<line id="XMLID_444_" class="st1" x1="346.5" y1="349.5" x2="364.5" y2="349.5"/>
		<line id="XMLID_443_" class="st1" x1="346.5" y1="353.1" x2="364.5" y2="353.1"/>
	</g>
	<g id="XMLID_469_">
		<path id="XMLID_473_" class="st2" d="M349.5,186h-19.7c-1.4,0-2.6,1.2-2.6,2.6v10.5c0,1.4,1.2,2.6,2.6,2.6h1.6
			c0,1.5-0.6,2.9-1.6,4c-0.5,0.5-0.1,1.3,0.5,1.4c4.1,0.4,6.8-2.5,6.8-5.3h12.3c1.4,0,2.6-1.2,2.6-2.6v-10.5
			C352.1,187.1,350.9,186,349.5,186z"/>
		<line id="XMLID_472_" class="st3" x1="330.6" y1="190.4" x2="348.6" y2="190.4"/>
		<line id="XMLID_471_" class="st3" x1="330.6" y1="194.1" x2="348.6" y2="194.1"/>
		<line id="XMLID_470_" class="st3" x1="330.6" y1="197.7" x2="348.6" y2="197.7"/>
	</g>
	<g>
		<path class="st4" d="M312,368.5c0,3.8-1.4,7.3-3.8,9.9c-2.7,3-6.6,4.9-11,4.9c-4.4,0-8.3-1.9-11-4.9c-2.4-2.6-3.8-6.1-3.8-9.9
			c0-8.2,6.6-14.8,14.8-14.8C305.4,353.7,312,360.3,312,368.5z"/>
		<g>
			<g id="XMLID_433_">
				<g id="XMLID_435_">
					<circle id="XMLID_441_" class="st5" cx="297.2" cy="365.4" r="8.3"/>
					<path id="XMLID_440_" class="st0" d="M297.2,357.1c-4.3,0-7.9,3.3-8.3,7.5h9.6c0.9,0,1.7-0.5,2.1-1.3l0.3-0.6l0.7,1
						c0.4,0.6,1.1,0.9,1.9,0.9h1.9C305.1,360.4,301.5,357.1,297.2,357.1z"/>
					<g id="XMLID_437_">
						<path id="XMLID_439_" class="st6" d="M300.1,367.9c0-0.8,0.7-1.5,1.5-1.5s1.5,0.7,1.5,1.5"/>
						<path id="XMLID_438_" class="st6" d="M291.3,367.9c0-0.8,0.7-1.5,1.5-1.5c0.8,0,1.5,0.7,1.5,1.5"/>
					</g>
					<path id="XMLID_436_" class="st6" d="M293.3,370.8c1.1,0.8,2.4,1.3,3.9,1.3s2.8-0.5,3.9-1.3"/>
				</g>
			</g>
			<path class="st0" d="M308.2,378.4c-2.7,3-6.6,4.9-11,4.9c-4.4,0-8.3-1.9-11-4.9c0.8-0.9,1.9-1.6,3.1-2l4.5-1.5
				c0.6-0.2,1.3,0,1.7,0.4l0.5,0.5c0.7,0.7,1.7,0.7,2.4,0l0.5-0.5c0.5-0.5,1.1-0.6,1.7-0.4l4.5,1.5
				C306.3,376.8,307.4,377.5,308.2,378.4z"/>
		</g>
	</g>
	<g>
		<path class="st7" d="M349.9,287.7c0,3.6-1.4,6.9-3.6,9.4c-2.6,2.9-6.3,4.7-10.4,4.7s-7.9-1.8-10.4-4.7c-2.2-2.5-3.6-5.8-3.6-9.4
			c0-7.8,6.3-14.1,14.1-14.1C343.6,273.6,349.9,279.9,349.9,287.7z"/>
		<g>
			<g id="XMLID_425_">
				<g id="XMLID_426_">
					<circle id="XMLID_432_" class="st8" cx="335.9" cy="284.7" r="7.9"/>
					<path id="XMLID_431_" class="st9" d="M335.9,276.8c-4.1,0-7.5,3.1-7.8,7.2h9.1c0.9,0,1.6-0.5,2-1.3l0.3-0.6l0.7,0.9
						c0.4,0.6,1.1,0.9,1.8,0.9h1.9C343.4,280,340,276.8,335.9,276.8z"/>
					<g id="XMLID_428_">
						<path id="XMLID_430_" class="st3" d="M338.7,287c0-0.8,0.6-1.4,1.4-1.4s1.4,0.6,1.4,1.4"/>
						<path id="XMLID_429_" class="st3" d="M330.2,287c0-0.8,0.6-1.4,1.4-1.4c0.8,0,1.4,0.6,1.4,1.4"/>
					</g>
					<path id="XMLID_427_" class="st3" d="M332.2,289.8c1,0.8,2.3,1.2,3.7,1.2s2.7-0.5,3.7-1.2"/>
				</g>
			</g>
			<path class="st10" d="M346.3,297.1c-2.6,2.9-6.3,4.7-10.4,4.7s-7.9-1.8-10.4-4.7c0.8-0.8,1.8-1.5,2.9-1.9l4.3-1.4
				c0.6-0.2,1.2,0,1.7,0.4l0.5,0.5c0.6,0.6,1.7,0.6,2.3,0l0.5-0.5c0.4-0.4,1.1-0.6,1.7-0.4l4.3,1.4
				C344.6,295.6,345.6,296.2,346.3,297.1z"/>
		</g>
	</g>
	<g>
		<path class="st7" d="M274.1,268.9c0,3.7-1.4,7.1-3.7,9.6c-2.6,2.9-6.4,4.8-10.7,4.8c-4.2,0-8.1-1.8-10.7-4.8
			c-2.3-2.5-3.7-5.9-3.7-9.6c0-7.9,6.4-14.4,14.4-14.4S274.1,261,274.1,268.9z"/>
		<g>
			<g id="XMLID_417_">
				<g id="XMLID_418_">
					<circle id="XMLID_424_" class="st8" cx="259.7" cy="265.9" r="8.1"/>
					<path id="XMLID_423_" class="st11" d="M259.7,257.8c-4.2,0-7.7,3.2-8,7.3h9.3c0.9,0,1.7-0.5,2-1.3l0.3-0.6l0.7,0.9
						c0.4,0.6,1.1,0.9,1.8,0.9h1.9C267.4,261.1,263.9,257.8,259.7,257.8z"/>
					<g id="XMLID_420_">
						<path id="XMLID_422_" class="st3" d="M262.6,268.3c0-0.8,0.7-1.5,1.5-1.5s1.5,0.7,1.5,1.5"/>
						<path id="XMLID_421_" class="st3" d="M254,268.3c0-0.8,0.7-1.5,1.5-1.5c0.8,0,1.5,0.7,1.5,1.5"/>
					</g>
					<path id="XMLID_419_" class="st3" d="M255.9,271.1c1.1,0.8,2.4,1.2,3.8,1.2c1.4,0,2.7-0.5,3.8-1.2"/>
				</g>
			</g>
			<path class="st12" d="M270.4,278.6c-2.6,2.9-6.4,4.8-10.7,4.8c-4.2,0-8.1-1.8-10.7-4.8c0.8-0.9,1.8-1.5,3-1.9l4.4-1.5
				c0.6-0.2,1.2,0,1.7,0.4l0.5,0.5c0.6,0.6,1.7,0.6,2.3,0l0.5-0.5c0.4-0.4,1.1-0.6,1.7-0.4l4.4,1.5
				C268.6,277,269.6,277.7,270.4,278.6z"/>
		</g>
	</g>
	<path id="XMLID_468_" class="st0" d="M393.5,222.8l1.1,2.2c0.3,0.7,1,1.2,1.8,1.3l2.5,0.4c1.9,0.3,2.7,2.6,1.3,4l-1.8,1.7
		c-0.6,0.5-0.8,1.3-0.7,2.1l0.4,2.5c0.3,1.9-1.7,3.4-3.4,2.5l-2.2-1.2c-0.7-0.4-1.5-0.4-2.2,0l-2.2,1.2c-1.7,0.9-3.7-0.6-3.4-2.5
		l0.4-2.5c0.1-0.8-0.1-1.5-0.7-2.1l-1.8-1.7c-1.4-1.4-0.6-3.7,1.3-4l2.5-0.4c0.8-0.1,1.4-0.6,1.8-1.3l1.1-2.2
		C390.1,221.1,392.6,221.1,393.5,222.8z"/>
	<path class="st13" d="M416,190.9c0-2.7-2.2-4.9-4.9-4.9c-1.6,0-3,0.8-3.9,2c-0.9-1.2-2.3-2-3.9-2c-2.7,0-4.9,2.2-4.9,4.9
		c0,0-0.7,5.2,8.9,11.1C416.7,196.1,416,190.9,416,190.9z"/>
	<path class="st14" d="M304.9,283c0-2.7-2.2-4.9-4.9-4.9c-1.6,0-3,0.8-3.9,2c-0.9-1.2-2.3-2-3.9-2c-2.7,0-4.9,2.2-4.9,4.9
		c0,0-0.7,5.2,8.9,11.1C305.6,288.2,304.9,283,304.9,283z"/>
	<g id="XMLID_479_">
		<line id="XMLID_481_" class="st15" x1="412.4" y1="210.7" x2="419.7" y2="218.1"/>
		<line id="XMLID_416_" class="st15" x1="419.7" y1="210.7" x2="412.4" y2="218.1"/>
	</g>
	<g id="XMLID_488_">
		<line id="XMLID_491_" class="st15" x1="282.5" y1="240.5" x2="289.9" y2="247.8"/>
		<line id="XMLID_490_" class="st15" x1="289.9" y1="240.5" x2="282.5" y2="247.8"/>
	</g>
	<circle id="XMLID_415_" class="st15" cx="270.2" cy="369.6" r="3.8"/>
	<circle id="XMLID_499_" class="st15" cx="416" cy="257.1" r="3.8"/>
	<circle id="XMLID_493_" class="st15" cx="339.6" cy="330.9" r="3.8"/>
	
		<rect id="XMLID_492_" x="324.6" y="356.3" transform="matrix(0.7071 -0.7071 0.7071 0.7071 -158.3053 337.3506)" class="st16" width="6.9" height="6.9"/>
	
		<rect id="XMLID_414_" x="270.3" y="337.5" transform="matrix(0.7071 -0.7071 0.7071 0.7071 -160.8927 293.4475)" class="st16" width="6.9" height="6.9"/>
	
		<rect id="XMLID_498_" x="271.5" y="285.8" transform="matrix(0.7071 -0.7071 0.7071 0.7071 -123.9866 279.0991)" class="st16" width="6.9" height="6.9"/>
	
		<rect id="XMLID_484_" x="318.4" y="308.6" transform="matrix(0.7071 -0.7071 0.7071 0.7071 -126.3701 318.9398)" class="st16" width="6.9" height="6.9"/>
	<circle id="XMLID_478_" class="st15" cx="377.1" cy="253.3" r="3.8"/>
	<circle id="XMLID_483_" class="st15" cx="330.2" cy="219.4" r="3.8"/>
	
		<rect id="XMLID_477_" x="361.8" y="285.8" transform="matrix(0.7071 -0.7071 0.7071 0.7071 -97.5356 342.9502)" class="st16" width="6.9" height="6.9"/>
	
		<rect id="XMLID_476_" x="361.8" y="228.5" transform="matrix(0.7071 -0.7071 0.7071 0.7071 -57.0179 326.1593)" class="st16" width="6.9" height="6.9"/>
	<polyline id="XMLID_413_" class="st15" points="341.3,369.3 341.7,376.2 334.8,375.8 335.3,382.6 328.4,382.2 328.9,389 322,388.6 
		322.4,395.4 315.6,395 316,401.9 309.2,401.4 	"/>
	<polyline id="XMLID_502_" class="st15" points="421.7,308.6 422.1,315.4 415.3,315 415.7,321.8 408.8,321.4 409.3,328.3 
		402.4,327.8 402.8,334.7 396,334.2 396.4,341.1 389.6,340.7 	"/>
	<polyline id="XMLID_482_" class="st15" points="311.9,241.1 312.3,247.9 305.5,247.5 305.9,254.4 299.1,253.9 299.5,260.8 
		292.6,260.4 293.1,267.2 286.2,266.8 286.6,273.6 279.8,273.2 	"/>
	<polyline id="XMLID_412_" class="st15" points="265.1,300.2 265.5,307.1 258.7,306.6 259.1,313.5 252.3,313.1 252.7,319.9 
		245.8,319.5 246.3,326.3 239.4,325.9 239.9,332.7 233,332.3 	"/>
	<g id="XMLID_410_">
		<g>
			<line class="st17" x1="222.5" y1="323.5" x2="224.3" y2="321.8"/>
			<line class="st18" x1="225.5" y1="320.5" x2="242.5" y2="303.5"/>
			<line class="st17" x1="243.1" y1="302.9" x2="244.9" y2="301.1"/>
		</g>
	</g>
	<g id="XMLID_463_">
		<g>
			<line class="st17" x1="297" y1="228.1" x2="298.8" y2="226.3"/>
			<line class="st18" x1="300.1" y1="225.1" x2="317" y2="208.1"/>
			<line class="st17" x1="317.7" y1="207.5" x2="319.4" y2="205.7"/>
		</g>
	</g>
	<g id="XMLID_461_">
		<g>
			<line class="st17" x1="301.9" y1="233" x2="303.7" y2="231.3"/>
			<line class="st19" x1="305.1" y1="229.8" x2="314.4" y2="220.6"/>
			<line class="st17" x1="315.1" y1="219.9" x2="316.9" y2="218.1"/>
		</g>
	</g>
	<g id="XMLID_474_">
		<g>
			<line class="st17" x1="380.4" y1="272.4" x2="382.2" y2="270.6"/>
			<line class="st20" x1="383.6" y1="269.2" x2="407.9" y2="244.8"/>
			<line class="st17" x1="408.6" y1="244.1" x2="410.4" y2="242.4"/>
		</g>
	</g>
	<g id="XMLID_406_">
		<g>
			<line class="st17" x1="385.8" y1="280.6" x2="387.6" y2="278.9"/>
			<line class="st21" x1="389" y1="277.4" x2="403.4" y2="263.1"/>
			<line class="st17" x1="404.1" y1="262.4" x2="405.8" y2="260.6"/>
		</g>
	</g>
	<g id="XMLID_400_">
		<g>
			<line class="st17" x1="260.2" y1="329.7" x2="261.9" y2="327.9"/>
			<line class="st21" x1="263.4" y1="326.5" x2="277.7" y2="312.2"/>
			<line class="st17" x1="278.4" y1="311.4" x2="280.2" y2="309.7"/>
		</g>
	</g>
	<g id="XMLID_500_">
		<g>
			<line class="st17" x1="336.3" y1="318" x2="338.1" y2="316.2"/>
			<line class="st21" x1="339.5" y1="314.8" x2="353.8" y2="300.4"/>
			<line class="st17" x1="354.6" y1="299.7" x2="356.3" y2="298"/>
		</g>
	</g>
	<g id="XMLID_485_">
		<g>
			<line class="st17" x1="315.1" y1="274.8" x2="316.8" y2="273"/>
			<line class="st21" x1="318.3" y1="271.6" x2="332.6" y2="257.3"/>
			<line class="st17" x1="333.3" y1="256.6" x2="335.1" y2="254.8"/>
		</g>
	</g>
	<g id="XMLID_487_">
		<g>
			<line class="st17" x1="307.5" y1="269.3" x2="309.3" y2="267.5"/>
			<line class="st22" x1="310.6" y1="266.1" x2="319.5" y2="257.2"/>
			<line class="st17" x1="320.2" y1="256.6" x2="322" y2="254.8"/>
		</g>
	</g>
	<polyline id="XMLID_460_" class="st15" points="375.4,189.9 375.9,196.7 369,196.3 369.4,203.2 362.6,202.7 363,209.6 356.2,209.1 
		356.6,216 349.7,215.6 350.2,222.4 343.3,222 	"/>
	<g id="XMLID_455_">
		<g>
			<line class="st17" x1="370.5" y1="219.4" x2="372.2" y2="217.6"/>
			<line class="st21" x1="373.7" y1="216.2" x2="388" y2="201.8"/>
			<line class="st17" x1="388.7" y1="201.1" x2="390.5" y2="199.4"/>
		</g>
	</g>
	<g id="XMLID_372_">
		<g>
			<line class="st17" x1="197.3" y1="398.3" x2="199" y2="396.5"/>
			<line class="st20" x1="200.5" y1="395.1" x2="224.8" y2="370.8"/>
			<line class="st17" x1="225.5" y1="370.1" x2="227.3" y2="368.3"/>
		</g>
	</g>
	<g id="XMLID_494_">
		<g>
			<line class="st17" x1="374.9" y1="338.3" x2="376.6" y2="336.5"/>
			<line class="st23" x1="377.8" y1="335.3" x2="389.7" y2="323.4"/>
			<line class="st17" x1="390.3" y1="322.8" x2="392.1" y2="321"/>
		</g>
	</g>
	<g id="XMLID_451_">
		<path id="XMLID_295_" class="st7" d="M350.1,248.6h-28.4c-1.1,0-2-0.9-2-2V231c0-1.1,0.9-2,2-2h28.4c1.1,0,2,0.9,2,2v15.7
			C352.1,247.8,351.2,248.6,350.1,248.6z"/>
		<rect id="XMLID_454_" x="319.7" y="233.5" class="st2" width="32.4" height="2.9"/>
		<g id="XMLID_453_">
			<rect x="321.4" y="243.2" class="st7" width="10.1" height="1.4"/>
		</g>
		<g id="XMLID_452_">
			<rect x="333.9" y="243.2" class="st7" width="10.1" height="1.4"/>
		</g>
	</g>
</g>
<path id="XMLID_299_" class="st24" d="M369.6,333H81c-5.5,0-10.8-2.3-14.5-6.3l-0.5-0.5v-8.3h318.5v8.3l-0.5,0.5
	C380.3,330.7,375.1,333,369.6,333z"/>
<rect id="XMLID_298_" x="66.1" y="317.9" class="st24" width="318.5" height="8.3"/>
<path id="XMLID_297_" class="st24" d="M225.3,322.4h25.3c3.1,0,6-0.8,8.2-2.3l3.2-2.2h-36.7h-36.7l3.2,2.2c2.1,1.5,5.1,2.3,8.2,2.3
	H225.3z"/>
<path id="XMLID_296_" class="st24" d="M360.3,317.9h-270V159.3c0-2.3,1.8-4.1,4.1-4.1h261.8c2.3,0,4.1,1.8,4.1,4.1V317.9z"/>
<rect id="XMLID_294_" x="100.2" y="165.1" class="st25" width="250.3" height="142.8"/>
<g>
	<g>
		<path class="st26" d="M300.4,212.5h-57.9v-18.4c0-4.4,3.6-8,8-8h49.9c4.4,0,8,3.6,8,8v10.4C308.4,208.9,304.8,212.5,300.4,212.5z"
			/>
		<circle class="st27" cx="328" cy="199.3" r="8.2"/>
		<line class="st28" x1="254.9" y1="195.9" x2="292.8" y2="195.9"/>
		<line class="st28" x1="254.9" y1="200.2" x2="285.7" y2="200.2"/>
		<line class="st28" x1="254.9" y1="204.4" x2="270.9" y2="204.4"/>
	</g>
	<g>
		<path class="st26" d="M300.4,286.5h-57.9v-18.4c0-4.4,3.6-8,8-8h49.9c4.4,0,8,3.6,8,8v10.4C308.4,282.9,304.8,286.5,300.4,286.5z"
			/>
		<circle class="st27" cx="328" cy="273.3" r="8.2"/>
		<line class="st28" x1="254.9" y1="269.9" x2="292.8" y2="269.9"/>
		<line class="st28" x1="254.9" y1="274.2" x2="285.7" y2="274.2"/>
		<line class="st28" x1="254.9" y1="278.4" x2="270.9" y2="278.4"/>
	</g>
	<g>
		<path class="st29" d="M186.8,250.8h57.9v-18.4c0-4.4-3.6-8-8-8h-49.9c-4.4,0-8,3.6-8,8v10.4C178.7,247.2,182.3,250.8,186.8,250.8z
			"/>
		<circle class="st30" cx="159.1" cy="237.6" r="8.2"/>
		<line class="st28" x1="232.2" y1="234.2" x2="194.4" y2="234.2"/>
		<line class="st28" x1="232.2" y1="238.5" x2="201.4" y2="238.5"/>
		<line class="st28" x1="232.2" y1="242.7" x2="216.3" y2="242.7"/>
	</g>
</g>
<rect x="101.1" y="166.1" class="st26" width="43" height="140.8"/>
<g>
	<circle id="XMLID_1138_" class="st31" cx="114.1" cy="155.6" r="57"/>
	<circle id="XMLID_382_" class="st32" cx="114.1" cy="155.6" r="57"/>
	<g id="XMLID_1137_">
		<g>
			<g>
				<g>
					<g>
						<defs>
							<circle id="SVGID_1_" cx="114.5" cy="163" r="49"/>
						</defs>
						<clipPath id="SVGID_2_">
							<use xlink:href="#SVGID_1_"  style="overflow:visible;"/>
						</clipPath>
						<g id="XMLID_1120_" class="st33">
							<path id="XMLID_1068_" class="st26" d="M147.1,170.3c7.6,23.8-3.6,41.8-32.9,41.8c-30.9,0-39.9-18-32.6-41.8
								c4.6-15,2.8-31.4,7.5-38.8c6.7-10.6,12.8-14.7,25-14.7c11.6,0,18.9,3.7,23.7,14C141.7,139,142.1,154.9,147.1,170.3z"/>
							<path id="XMLID_1065_" class="st34" d="M113.9,116.7c-11.6,0-17.8,3.7-24.7,14.5c-2.5,3.9-3.1,10.3-3.9,17.8
								c-0.7,6.5-1.4,14-3.6,21c-3.9,12.5-3,22.9,2.3,30c5.5,7.5,15.6,11.2,29.9,11.2c14,0,24.3-4.1,30-11.9
								c5.4-7.4,6.3-17.6,2.5-29.4c-2.4-7.6-3.8-15.4-5-22.2c-1.2-7.1-2.3-13.2-4.3-17.4C132.8,120.8,125.8,116.7,113.9,116.7z"/>
							<path id="XMLID_1064_" class="st35" d="M72.3,225.9c0-17.5,18.9-31.7,42.1-31.7s42.1,14.2,42.1,31.7"/>
							<path id="XMLID_1063_" class="st36" d="M123.9,146c-9,0-16.8-3.7-20.6-9c-1.5,6.1-5.7,10.5-10.8,11.2c0,5.6,0,14.6,0,19.5
								c0,7.5,4.7,16.9,12.1,21.6v7.5c0,4.2,2.6,10.1,9.6,10.1c6.7,0,9.8-5.9,9.8-10.1v-7c7.9-4.5,12.1-14.3,12.1-22.1
								c0-7.5,0-24.6,0-24.6c0-0.1,0-0.1,0-0.2C134.8,145.3,131.6,146,123.9,146z"/>
							<path id="XMLID_1060_" class="st37" d="M114.1,207c-7.4,0-10-6.3-10-10.5v-7.4c-7-4.6-12.1-13.7-12.1-21.8v-19.5
								c0-0.2,0.2-0.3,0.3-0.4c4.9-0.6,9-4.8,10.5-10.8c0.1-0.2,0.2-0.3,0.3-0.3c0.2,0,0.3,0.1,0.4,0.2c3.9,5.5,11.6,8.8,20.2,8.8
								c7.9,0,10.6-0.7,11.8-2.9c0.1-0.2,0.3-0.2,0.5-0.2c0.2,0.1,0.3,0.2,0.3,0.4v0.2v24.6c0,7.4-3.8,17.5-12.1,22.4v6.7
								C124.3,200.8,121.2,207,114.1,207z M92.8,148.1v19.2c0,7.9,5,16.8,11.9,21.3c0.1,0.1,0.2,0.2,0.2,0.3v7.5
								c0,3.9,2.5,9.6,9.2,9.6c6.4,0,9.4-5.6,9.4-9.6v-7c0-0.1,0.1-0.3,0.2-0.3c7.9-4.5,11.9-14.4,11.9-21.8v-23.5
								c-1.9,1.9-5.5,2.3-11.7,2.3c-8.6,0-16.3-3.2-20.5-8.5C101.7,143.3,97.7,147.4,92.8,148.1z"/>
							<g id="XMLID_1058_">
								<path id="XMLID_1059_" class="st37" d="M118.7,175.3c0,0-1.9,2.2-4.3,2.2c-2.3,0-4.3-2.2-4.3-2.2s1.9,0.3,4.3,0.3
									C116.9,175.6,118.7,175.3,118.7,175.3z"/>
							</g>
							<g id="XMLID_1035_">
								<path id="XMLID_1057_" class="st37" d="M114.7,169.5L114.7,169.5c-0.7,0-1.3-0.3-1.7-0.8c-0.2-0.3-0.3-0.8-0.2-1.2l0.4,0.1
									c-0.1,0.3-0.1,0.6,0.1,0.9s0.7,0.6,1.2,0.6c0.6,0,1.2-0.2,1.4-0.6c0.2-0.3,0.2-0.6,0.1-1l0.3-0.2c0.2,0.6,0.1,1-0.1,1.3
									C116.1,169.1,115.4,169.5,114.7,169.5z"/>
							</g>
							<g id="XMLID_1033_">
								<path id="XMLID_1034_" class="st37" d="M99.1,156.7c-0.2,0-0.4-0.1-0.6-0.2c-0.3-0.3-0.3-0.8-0.1-1.2c1-1.1,2.5-1.7,3.9-1.6
									c1.2,0.1,2.2,0.7,2.8,1.7c0.2,0.4,0.1,0.9-0.2,1.2c-0.4,0.2-0.9,0.1-1.2-0.2c-0.3-0.5-0.8-0.8-1.5-0.9
									c-0.9-0.1-1.9,0.3-2.5,1C99.5,156.6,99.3,156.7,99.1,156.7z"/>
							</g>
							<g id="XMLID_1029_">
								<path id="XMLID_1031_" class="st37" d="M130.5,156.7c-0.2,0-0.4-0.1-0.6-0.2c-0.7-0.7-1.7-1.1-2.7-1c-0.8,0.1-1.5,0.4-1.9,1
									c-0.3,0.3-0.8,0.4-1.2,0.2c-0.3-0.3-0.4-0.8-0.2-1.2c0.7-1,1.9-1.5,3.2-1.6c1.5-0.1,3,0.5,4,1.6c0.3,0.3,0.3,0.9,0,1.2
									C130.9,156.6,130.7,156.7,130.5,156.7z"/>
							</g>
						</g>
					</g>
				</g>
			</g>
		</g>
	</g>
	<g id="XMLID_1140_">
		<line id="XMLID_1141_" class="st38" x1="76.9" y1="109.1" x2="74.7" y2="106.1"/>
		<line id="XMLID_1142_" class="st38" x1="73.6" y1="104.7" x2="71.4" y2="101.6"/>
		<line id="XMLID_1143_" class="st38" x1="70.4" y1="100.3" x2="68.2" y2="97.2"/>
		<line id="XMLID_1144_" class="st38" x1="67.2" y1="95.9" x2="64.9" y2="92.8"/>
		<line id="XMLID_1145_" class="st38" x1="63.9" y1="91.4" x2="61.6" y2="88.4"/>
		<line id="XMLID_1146_" class="st38" x1="60.6" y1="87" x2="58.4" y2="83.9"/>
		<line id="XMLID_1147_" class="st38" x1="57.4" y1="82.6" x2="55.1" y2="79.5"/>
		<path id="XMLID_371_" class="st38" d="M54.1,78.2"/>
	</g>
	<g id="XMLID_361_">
		<path id="XMLID_370_" class="st38" d="M55.9,224.5"/>
		<line id="XMLID_369_" class="st38" x1="57" y1="223.3" x2="59.7" y2="220.5"/>
		<line id="XMLID_368_" class="st38" x1="60.9" y1="219.3" x2="63.5" y2="216.5"/>
		<line id="XMLID_366_" class="st38" x1="64.6" y1="215.4" x2="67.3" y2="212.5"/>
		<line id="XMLID_364_" class="st38" x1="68.5" y1="211.4" x2="71.1" y2="208.5"/>
		<line id="XMLID_363_" class="st38" x1="72.3" y1="207.4" x2="74.9" y2="204.6"/>
		<path id="XMLID_362_" class="st38" d="M76,203.4"/>
	</g>
	<g id="XMLID_353_">
		<path id="XMLID_360_" class="st38" d="M161.8,116.8"/>
		<line id="XMLID_359_" class="st38" x1="163.1" y1="115.7" x2="166.1" y2="113.3"/>
		<line id="XMLID_358_" class="st38" x1="167.3" y1="112.3" x2="170.3" y2="109.8"/>
		<line id="XMLID_357_" class="st38" x1="171.6" y1="108.7" x2="174.5" y2="106.3"/>
		<line id="XMLID_356_" class="st38" x1="175.8" y1="105.2" x2="178.7" y2="102.8"/>
		<line id="XMLID_355_" class="st38" x1="180" y1="101.8" x2="183" y2="99.4"/>
		<path id="XMLID_354_" class="st38" d="M184.3,98.3"/>
	</g>
	<circle id="XMLID_352_" class="st39" cx="198.6" cy="84.8" r="17.6"/>
	<circle id="XMLID_328_" class="st39" cx="45.9" cy="66.2" r="18"/>
	<circle id="XMLID_588_" class="st39" cx="45.9" cy="232.8" r="18"/>
	<g id="XMLID_384_">
	</g>
</g>
<path class="st40" d="M153.4,50.5c0-0.2-0.1-0.4-0.1-0.6c0.1-1.2-0.1-2.4,0.5-3.5c0.2,0.2,0.4,0.3,0.6,0.5c1.3,1,0.2,2.4,0.5,3.6
	c-0.2,0-0.3,0-0.5,0C154.1,50.5,153.7,50.5,153.4,50.5z"/>
<path class="st41" d="M155.1,47.5c-0.3,0.7-0.5,1.3-0.8,2c-0.4-0.7-2.3-1.4,0-2.1C154.6,47.5,154.8,47.5,155.1,47.5z"/>
<path class="st42" d="M153.4,46.4c0.3,0,0.7,0,1,0c0.2,0.5,0.3,1,0.5,1.5c-0.5,0.4,0,0.7,0,1c-0.2,0.2-0.4,0.4-0.5,0.5
	c-0.4,0.2-0.5,0.6-0.5,1C152.9,49.2,153.6,47.8,153.4,46.4z"/>
<g>
	<g>
		
			<ellipse transform="matrix(0.2298 -0.9732 0.9732 0.2298 -29.0748 95.6625)" class="st43" cx="45.9" cy="66.2" rx="15.2" ry="15.2"/>
	</g>
	<path class="st44" d="M43.4,66.4v9.3c0,0.1,0.1,0.2,0.2,0.2h3.4c0.1,0,0.2-0.1,0.2-0.2v-9.4h2.5c0.1,0,0.2-0.1,0.2-0.2l0.2-2.8
		c0-0.1-0.1-0.3-0.2-0.3h-2.7v-2c0-0.5,0.4-0.9,0.9-0.9h1.9c0.1,0,0.2-0.1,0.2-0.2v-2.8c0-0.1-0.1-0.2-0.2-0.2h-3.3
		c-1.9,0-3.5,1.5-3.5,3.5v2.7h-1.7c-0.1,0-0.2,0.1-0.2,0.2V66c0,0.1,0.1,0.2,0.2,0.2h1.7V66.4z"/>
</g>
<g>
	<path class="st45" d="M212.4,81.9c0-3.3-2.7-6-6-6h-15.6c-3.3,0-6,2.7-6,6v7.3c0,3.3,2.7,6,6,6h15.6c3.3,0,6-2.7,6-6V81.9z
		 M202.6,86l-6.2,3.4c-0.3,0.1-0.5,0-0.5-0.4v-7c0-0.3,0.3-0.5,0.5-0.4l6.3,3.6C202.9,85.4,202.9,85.8,202.6,86z"/>
</g>
<g>
	<path class="st46" d="M57.8,226c-0.8,0.3-1.6,0.6-2.4,0.7c0.4-0.1,1-0.8,1.2-1.1c0.4-0.4,0.6-0.9,0.8-1.5c0,0,0-0.1,0-0.1
		c-0.1,0-0.1,0-0.1,0c-0.9,0.5-1.9,0.8-2.9,1.1c-0.1,0-0.1,0-0.2-0.1c-0.1-0.1-0.2-0.2-0.3-0.3c-0.4-0.4-0.9-0.6-1.4-0.9
		c-0.7-0.3-1.4-0.4-2.1-0.3c-0.7,0-1.4,0.2-2,0.6c-0.6,0.3-1.2,0.8-1.6,1.3c-0.5,0.6-0.8,1.2-1,2c-0.2,0.7-0.2,1.4-0.1,2.1
		c0,0.1,0,0.1-0.1,0.1c-3.9-0.6-7.2-2-9.9-5c-0.1-0.1-0.2-0.1-0.3,0c-1.2,1.7-0.6,4.5,0.9,5.9c0.2,0.2,0.4,0.4,0.6,0.5
		c-0.1,0-1-0.1-1.9-0.5c-0.1-0.1-0.2,0-0.2,0.1c0,0.2,0,0.4,0,0.6c0.2,1.8,1.4,3.4,3.1,4c0.2,0.1,0.4,0.2,0.6,0.2
		c-0.4,0.1-0.8,0.1-1.9,0.1c-0.1,0-0.2,0-0.1,0.2c0.8,2.2,2.6,2.9,3.9,3.3c0.2,0,0.4,0,0.5,0.1c0,0,0,0,0,0c-0.4,0.7-2,1.2-2.7,1.4
		c-1.3,0.5-2.7,0.7-4.1,0.5c-0.2,0-0.3,0-0.3,0c-0.1,0,0,0.1,0.1,0.1c0.3,0.2,0.6,0.3,0.8,0.5c0.9,0.5,1.8,0.8,2.7,1.1
		c4.9,1.4,10.4,0.4,14.1-3.3c2.9-2.9,3.9-6.8,3.9-10.8c0-0.2,0.2-0.2,0.3-0.3c0.8-0.6,1.3-1.2,1.9-2C57.9,226.2,57.9,226.1,57.8,226
		C57.9,226,57.9,226,57.8,226C57.9,225.9,57.9,226,57.8,226z"/>
	<path class="st44" d="M41,243.3C43.1,243.3,41.1,243.3,41,243.3C41.3,243.3,41,243.3,41,243.3z"/>
	<path class="st44" d="M41,243.3C41,243.3,40.6,243.3,41,243.3C41,243.3,41,243.3,41,243.3z"/>
	<path class="st44" d="M41.8,243.3C41.8,243.3,42.3,243.3,41.8,243.3C41.8,243.3,41.9,243.3,41.8,243.3z"/>
	<path class="st44" d="M50.3,223.7C50.3,223.7,50.3,223.7,50.3,223.7C50.3,223.7,50.3,223.7,50.3,223.7z"/>
</g>
</svg>
